<svg
  width="25"
  height="25"
  viewBox="0 0 25 25"
  xmlns="http://www.w3.org/2000/svg"
>
  <path
    d="M16.26 12.5a3.765 3.765 0 01-3.76 3.76 3.765 3.765 0 01-3.76-3.76 3.765 3.765 0 013.76-3.76 3.765 3.765 0 013.76 3.76M12.5 0C5.607 0 0 5.607 0 12.5S5.607 25 12.5 25c2.525 0 4.96-.752 7.042-2.174l.035-.025-1.684-1.957-.028.017a9.89 9.89 0 01-5.365 1.576c-5.48 0-9.938-4.458-9.938-9.937 0-5.48 4.459-9.938 9.938-9.938 5.48 0 9.938 4.459 9.938 9.938-.002.718-.08 1.434-.235 2.135-.313 1.291-1.218 1.686-1.896 1.634-.681-.055-1.479-.542-1.485-1.73V12.5A6.33 6.33 0 0012.5 6.177 6.33 6.33 0 006.177 12.5a6.33 6.33 0 006.323 6.323 6.27 6.27 0 004.48-1.867 4.062 4.062 0 003.457 1.88c.91 0 1.813-.304 2.539-.855.749-.57 1.308-1.391 1.618-2.38.049-.16.14-.525.14-.528l.002-.014c.183-.791.264-1.583.264-2.559C25 5.607 19.393 0 12.5 0"
    fill="#3742FA"
    fill-rule="nonzero"
  />
</svg>