<svg
  width="25"
  height="25"
  viewBox="0 0 25 25"
  xmlns="http://www.w3.org/2000/svg"
>
  <path
    d="M12.5 0C5.594 0 0 5.739 0 12.817c0 5.665 3.581 10.468 8.547 12.16.625.122.854-.275.854-.615 0-.305-.01-1.111-.016-2.18-3.477.774-4.21-1.72-4.21-1.72-.569-1.478-1.39-1.874-1.39-1.874-1.133-.794.087-.778.087-.778 1.255.09 1.914 1.32 1.914 1.32 1.115 1.96 2.927 1.394 3.641 1.066.113-.829.434-1.394.792-1.714-2.776-.32-5.694-1.423-5.694-6.334 0-1.4.484-2.542 1.286-3.44-.14-.323-.562-1.626.11-3.392 0 0 1.047-.344 3.437 1.314 1-.285 2.063-.426 3.125-.433 1.063.007 2.125.148 3.125.433 2.375-1.658 3.422-1.314 3.422-1.314.672 1.766.25 3.069.125 3.392.797.898 1.281 2.04 1.281 3.44 0 4.924-2.921 6.008-5.703 6.323.438.384.844 1.17.844 2.371 0 1.716-.016 3.093-.016 3.51 0 .336.22.737.86.609C21.42 23.28 25 18.473 25 12.817 25 5.74 19.403 0 12.5 0"
    fill="#3742FA"
    fill-rule="nonzero"
  />
</svg>