<svg
  width="25"
  height="25"
  viewBox="0 0 25 25"
  xmlns="http://www.w3.org/2000/svg"
>
  <path
    d="M25 12.5C25 19.406 19.406 25 12.5 25S0 19.406 0 12.5 5.594 0 12.5 0 25 5.594 25 12.5zm-14.787 6.594c5.543 0 8.575-4.594 8.575-8.575 0-.132 0-.263-.007-.388a6.174 6.174 0 001.507-1.562c-.538.237-1.12.4-1.732.475a3.012 3.012 0 001.325-1.669 6.103 6.103 0 01-1.912.731 3.014 3.014 0 00-5.131 2.75 8.55 8.55 0 01-6.213-3.15 3.023 3.023 0 00-.406 1.513 3 3 0 001.343 2.506A2.96 2.96 0 016.2 11.35v.037a3.017 3.017 0 002.419 2.957 3.004 3.004 0 01-1.363.05 3.01 3.01 0 002.813 2.094 6.058 6.058 0 01-4.463 1.243 8.397 8.397 0 004.607 1.363"
    fill="#3742FA"
    fill-rule="nonzero"
  />
</svg>